{
  "accessors": [
    {
      "bufferView": 2,
      "componentType": 5126,
      "count": 1850,
      "max": [
        0.7305170297622681,
        0.36459600925445557,
        0.5251280069351196
      ],
      "min": [
        -0.7305170297622681,
        -0.24205699563026428,
        0.5143679976463318
      ],
      "type": "VEC3"
    },
    {
      "bufferView": 2,
      "byteOffset": 22200,
      "componentType": 5126,
      "count": 1850,
      "max": [
        1.0,
        1.0,
        1.0
      ],
      "min": [
        -1.0,
        -1.0,
        -1.0
      ],
      "type": "VEC3"
    },
    {
      "bufferView": 3,
      "componentType": 5126,
      "count": 1850,
      "max": [
        0.9993564486503601,
        0.9999880790710449,
        1.0,
        1.0
      ],
      "min": [
        -0.9993564486503601,
        -0.9995572566986084,
        -1.0,
        -1.0
      ],
      "type": "VEC4"
    },
    {
      "bufferView": 1,
      "componentType": 5126,
      "count": 1850,
      "max": [
        0.9882590174674988,
        0.9968550205230713
      ],
      "min": [
        0.30316999554634094,
        0.001842560013756156
      ],
      "type": "VEC2"
    },
    {
      "bufferView": 0,
      "componentType": 5125,
      "count": 7800,
      "type": "SCALAR"
    },
    {
      "bufferView": 2,
      "byteOffset": 44400,
      "componentType": 5126,
      "count": 2048,
      "max": [
        1.0,
        -0.3440600037574768,
        0.5582709908485413
      ],
      "min": [
        -1.0,
        -0.4620180130004883,
        -0.5582709908485413
      ],
      "type": "VEC3"
    },
    {
      "bufferView": 2,
      "byteOffset": 68976,
      "componentType": 5126,
      "count": 2048,
      "max": [
        1.0,
        0.7454880475997925,
        1.0
      ],
      "min": [
        -1.0,
        -1.0,
        -1.0
      ],
      "type": "VEC3"
    },
    {
      "bufferView": 3,
      "byteOffset": 29600,
      "componentType": 5126,
      "count": 2048,
      "max": [
        1.0,
        1.0,
        1.0,
        1.0
      ],
      "min": [
        -1.0,
        -1.0,
        -1.0,
        -1.0
      ],
      "type": "VEC4"
    },
    {
      "bufferView": 1,
      "byteOffset": 14800,
      "componentType": 5126,
      "count": 2048,
      "max": [
        0.9968850016593933,
        0.9930440187454224
      ],
      "min": [
        0.0018414000514894724,
        0.16736899316310883
      ],
      "type": "VEC2"
    },
    {
      "bufferView": 0,
      "byteOffset": 31200,
      "componentType": 5125,
      "count": 5376,
      "type": "SCALAR"
    },
    {
      "bufferView": 2,
      "byteOffset": 93552,
      "componentType": 5126,
      "count": 1285,
      "max": [
        0.9733250141143799,
        0.4620180130004883,
        0.5315960049629211
      ],
      "min": [
        -0.9733250141143799,
        -0.3440600037574768,
        -0.5315960049629211
      ],
      "type": "VEC3"
    },
    {
      "bufferView": 2,
      "byteOffset": 108972,
      "componentType": 5126,
      "count": 1285,
      "max": [
        1.0,
        1.0,
        1.0
      ],
      "min": [
        -1.0,
        -1.0,
        -1.0
      ],
      "type": "VEC3"
    },
    {
      "bufferView": 3,
      "byteOffset": 62368,
      "componentType": 5126,
      "count": 1285,
      "max": [
        1.0,
        1.0,
        1.0,
        1.0
      ],
      "min": [
        -1.0,
        -1.0,
        -1.0,
        1.0
      ],
      "type": "VEC4"
    },
    {
      "bufferView": 1,
      "byteOffset": 31184,
      "componentType": 5126,
      "count": 1285,
      "max": [
        0.9981650114059448,
        0.9972209930419922
      ],
      "min": [
        0.0018422299763187766,
        0.0018476099940016866
      ],
      "type": "VEC2"
    },
    {
      "bufferView": 0,
      "byteOffset": 52704,
      "componentType": 5125,
      "count": 2643,
      "type": "SCALAR"
    }
  ],
  "asset": {
    "extras": {
      "author": "Dmitriy Korotkov (https://sketchfab.com/ArtDmitriyK)",
      "license": "CC-BY-4.0 (http://creativecommons.org/licenses/by/4.0/)",
      "source": "https://sketchfab.com/3d-models/old-wooden-desk-c92290d214a84ea58951bdb6b79261c2",
      "title": "Old Wooden Desk"
    },
    "generator": "Sketchfab-12.66.0",
    "version": "2.0"
  },
  "bufferViews": [
    {
      "buffer": 0,
      "byteLength": 63276,
      "name": "floatBufferViews",
      "target": 34963
    },
    {
      "buffer": 0,
      "byteLength": 41464,
      "byteOffset": 63276,
      "byteStride": 8,
      "name": "floatBufferViews",
      "target": 34962
    },
    {
      "buffer": 0,
      "byteLength": 124392,
      "byteOffset": 104740,
      "byteStride": 12,
      "name": "floatBufferViews",
      "target": 34962
    },
    {
      "buffer": 0,
      "byteLength": 82928,
      "byteOffset": 229132,
      "byteStride": 16,
      "name": "floatBufferViews",
      "target": 34962
    }
  ],
  "buffers": [
    {
      "byteLength": 312060,
      "uri": "scene.bin"
    }
  ],
  "images": [
    {
      "uri": "textures/Cabinet_baseColor.jpeg"
    },
    {
      "uri": "textures/Cabinet_metallicRoughness.png"
    },
    {
      "uri": "textures/Cabinet_normal.png"
    }
  ],
  "materials": [
    {
      "name": "Cabinet",
      "normalTexture": {
        "index": 2,
        "scale": 0.232304788275688
      },
      "occlusionTexture": {
        "index": 1
      },
      "pbrMetallicRoughness": {
        "baseColorTexture": {
          "index": 0
        },
        "metallicRoughnessTexture": {
          "index": 1
        }
      }
    }
  ],
  "meshes": [
    {
      "name": "defaultMaterial",
      "primitives": [
        {
          "attributes": {
            "NORMAL": 1,
            "POSITION": 0,
            "TANGENT": 2,
            "TEXCOORD_0": 3
          },
          "indices": 4,
          "material": 0,
          "mode": 4
        }
      ]
    },
    {
      "name": "defaultMaterial",
      "primitives": [
        {
          "attributes": {
            "NORMAL": 6,
            "POSITION": 5,
            "TANGENT": 7,
            "TEXCOORD_0": 8
          },
          "indices": 9,
          "material": 0,
          "mode": 4
        }
      ]
    },
    {
      "name": "defaultMaterial",
      "primitives": [
        {
          "attributes": {
            "NORMAL": 11,
            "POSITION": 10,
            "TANGENT": 12,
            "TEXCOORD_0": 13
          },
          "indices": 14,
          "material": 0,
          "mode": 4
        }
      ]
    }
  ],
  "nodes": [
    {
      "children": [
        1
      ],
      "matrix": [
        1.0,
        0.0,
        0.0,
        0.0,
        0.0,
        2.220446049250313e-16,
        -1.0,
        0.0,
        0.0,
        1.0,
        2.220446049250313e-16,
        0.0,
        0.0,
        0.0,
        0.0,
        1.0
      ],
      "name": "Sketchfab_model"
    },
    {
      "children": [
        2,
        4,
        6
      ],
      "matrix": [
        1.0,
        0.0,
        0.0,
        0.0,
        0.0,
        -4.371139006309477e-08,
        0.999999999999999,
        0.0,
        0.0,
        -0.999999999999999,
        -4.371139006309477e-08,
        0.0,
        0.0,
        0.0,
        0.0,
        1.0
      ],
      "name": "Collada visual scene group"
    },
    {
      "children": [
        3
      ],
      "name": "Handle_low"
    },
    {
      "mesh": 0,
      "name": "defaultMaterial"
    },
    {
      "children": [
        5
      ],
      "name": "Feet_low"
    },
    {
      "mesh": 1,
      "name": "defaultMaterial"
    },
    {
      "children": [
        7
      ],
      "name": "Cabinet_low"
    },
    {
      "mesh": 2,
      "name": "defaultMaterial"
    }
  ],
  "samplers": [
    {
      "magFilter": 9729,
      "minFilter": 9987,
      "wrapS": 10497,
      "wrapT": 10497
    }
  ],
  "scene": 0,
  "scenes": [
    {
      "name": "Sketchfab_Scene",
      "nodes": [
        0
      ]
    }
  ],
  "textures": [
    {
      "sampler": 0,
      "source": 0
    },
    {
      "sampler": 0,
      "source": 1
    },
    {
      "sampler": 0,
      "source": 2
    }
  ]
}
